<?xml version="1.0" standalone="no"?>
<svg xmlns:xlink="http://www.w3.org/1999/xlink" id="wave" style="transform:rotate(180deg); transition: 0.3s" viewBox="0 0 1440 370" version="1.1" xmlns="http://www.w3.org/2000/svg"><defs><linearGradient id="sw-gradient-0" x1="0" x2="0" y1="1" y2="0"><stop stop-color="rgba(48, 92, 181, 1)" offset="0%"/><stop stop-color="rgba(48, 92, 181, 1)" offset="100%"/></linearGradient></defs><path style="transform:translate(0, 0px); opacity:1" fill="url(#sw-gradient-0)" d="M0,148L60,154.2C120,160,240,173,360,178.8C480,185,600,185,720,197.3C840,210,960,234,1080,246.7C1200,259,1320,259,1440,240.5C1560,222,1680,185,1800,166.5C1920,148,2040,148,2160,160.3C2280,173,2400,197,2520,191.2C2640,185,2760,148,2880,117.2C3000,86,3120,62,3240,43.2C3360,25,3480,12,3600,49.3C3720,86,3840,173,3960,172.7C4080,173,4200,86,4320,98.7C4440,111,4560,222,4680,265.2C4800,308,4920,284,5040,271.3C5160,259,5280,259,5400,228.2C5520,197,5640,136,5760,104.8C5880,74,6000,74,6120,98.7C6240,123,6360,173,6480,197.3C6600,222,6720,222,6840,203.5C6960,185,7080,148,7200,166.5C7320,185,7440,259,7560,283.7C7680,308,7800,284,7920,277.5C8040,271,8160,284,8280,252.8C8400,222,8520,148,8580,111L8640,74L8640,370L8580,370C8520,370,8400,370,8280,370C8160,370,8040,370,7920,370C7800,370,7680,370,7560,370C7440,370,7320,370,7200,370C7080,370,6960,370,6840,370C6720,370,6600,370,6480,370C6360,370,6240,370,6120,370C6000,370,5880,370,5760,370C5640,370,5520,370,5400,370C5280,370,5160,370,5040,370C4920,370,4800,370,4680,370C4560,370,4440,370,4320,370C4200,370,4080,370,3960,370C3840,370,3720,370,3600,370C3480,370,3360,370,3240,370C3120,370,3000,370,2880,370C2760,370,2640,370,2520,370C2400,370,2280,370,2160,370C2040,370,1920,370,1800,370C1680,370,1560,370,1440,370C1320,370,1200,370,1080,370C960,370,840,370,720,370C600,370,480,370,360,370C240,370,120,370,60,370L0,370Z"/><defs><linearGradient id="sw-gradient-1" x1="0" x2="0" y1="1" y2="0"><stop stop-color="rgba(55.987, 109.743, 218.475, 1)" offset="0%"/><stop stop-color="rgba(56, 110, 218, 1)" offset="100%"/></linearGradient></defs><path style="transform:translate(0, 50px); opacity:0.9" fill="url(#sw-gradient-1)" d="M0,185L60,197.3C120,210,240,234,360,228.2C480,222,600,185,720,154.2C840,123,960,99,1080,86.3C1200,74,1320,74,1440,74C1560,74,1680,74,1800,67.8C1920,62,2040,49,2160,80.2C2280,111,2400,185,2520,197.3C2640,210,2760,160,2880,135.7C3000,111,3120,111,3240,104.8C3360,99,3480,86,3600,92.5C3720,99,3840,123,3960,123.3C4080,123,4200,99,4320,92.5C4440,86,4560,99,4680,123.3C4800,148,4920,185,5040,178.8C5160,173,5280,123,5400,141.8C5520,160,5640,247,5760,271.3C5880,296,6000,259,6120,252.8C6240,247,6360,271,6480,265.2C6600,259,6720,222,6840,178.8C6960,136,7080,86,7200,111C7320,136,7440,234,7560,240.5C7680,247,7800,160,7920,135.7C8040,111,8160,148,8280,191.2C8400,234,8520,284,8580,308.3L8640,333L8640,370L8580,370C8520,370,8400,370,8280,370C8160,370,8040,370,7920,370C7800,370,7680,370,7560,370C7440,370,7320,370,7200,370C7080,370,6960,370,6840,370C6720,370,6600,370,6480,370C6360,370,6240,370,6120,370C6000,370,5880,370,5760,370C5640,370,5520,370,5400,370C5280,370,5160,370,5040,370C4920,370,4800,370,4680,370C4560,370,4440,370,4320,370C4200,370,4080,370,3960,370C3840,370,3720,370,3600,370C3480,370,3360,370,3240,370C3120,370,3000,370,2880,370C2760,370,2640,370,2520,370C2400,370,2280,370,2160,370C2040,370,1920,370,1800,370C1680,370,1560,370,1440,370C1320,370,1200,370,1080,370C960,370,840,370,720,370C600,370,480,370,360,370C240,370,120,370,60,370L0,370Z"/></svg>